<svg xmlns="http://www.w3.org/2000/svg" width="176.382" height="137.704" viewBox="0 0 176.382 137.704">
  <g id="Group_4" data-name="Group 4" transform="translate(-1314.23 -319.948)">
    <path id="Rectangle_45" data-name="Rectangle 45" d="M9,0H86a0,0,0,0,1,0,0V18a0,0,0,0,1,0,0H9A9,9,0,0,1,0,9V9A9,9,0,0,1,9,0Z" transform="translate(1326.506 385.836) rotate(43)" fill="#ddc28a"/>
    <path id="Rectangle_46" data-name="Rectangle 46" d="M7,0H169a0,0,0,0,1,0,0V18a0,0,0,0,1,0,0H7a7,7,0,0,1-7-7V7A7,7,0,0,1,7,0Z" transform="translate(1490.612 331.993) rotate(132)" fill="#ddc28a"/>
  </g>
</svg>
